<svg viewBox="0 -33 512 512" xmlns="http://www.w3.org/2000/svg"><path d="m209.414062 220.929688 20.820313 52.042968h51.53125l20.820313-52.046875c4.3125-10.78125 12.375-19.167969 22.355468-23.921875l-90.183594-90.1875c-10.390624-10.386718-24.242187-16.105468-39.011718-16.105468-14.765625 0-28.617188 5.71875-39.007813 16.105468l-85.816406 85.824219h96.710937c18.507813 0 34.910157 11.101563 41.78125 28.289063zm0 0"/><path d="m479.867188 192.640625v-75.5c0-8.285156-6.71875-15-15-15h-16.5625v-58.449219c0-24.089844-19.597657-43.691406-43.6875-43.691406-24.089844 0-43.691407 19.601562-43.691407 43.691406v58.449219h-16.558593c-8.285157 0-15 6.714844-15 15v78.042969c4.71875-1.65625 9.773437-2.542969 15-2.542969zm0 0"/><path d="m497 222.640625h-152.632812c-6.136719 0-11.648438 3.734375-13.929688 9.429687l-28.359375 70.902344h-92.15625l-28.359375-70.902344c-2.277344-5.695312-7.792969-9.429687-13.929688-9.429687h-152.632812c-8.285156 0-15 6.714844-15 15s6.714844 15 15 15h19.425781l23.441407 140.644531c2.339843 14.039063 9.996093 27.164063 21.5625 36.960938 11.566406 9.800781 25.773437 15.195312 40.003906 15.195312h273.132812c14.234375 0 28.4375-5.394531 40.003906-15.195312 11.566407-9.796875 19.226563-22.921875 21.5625-36.960938l23.441407-140.644531h19.425781c8.285156 0 15-6.714844 15-15s-6.714844-15-15-15zm0 0"/></svg>